<?xml version="1.0" standalone="no"?>
<!DOCTYPE svg PUBLIC "-//W3C//DTD SVG 20010904//EN"
 "http://www.w3.org/TR/2001/REC-SVG-20010904/DTD/svg10.dtd">
<svg version="1.0" xmlns="http://www.w3.org/2000/svg"
 width="460.000000pt" height="460.000000pt" viewBox="0 0 460.000000 460.000000"
 preserveAspectRatio="xMidYMid meet">
<metadata>
Created by potrace 1.11, written by Peter Selinger 2001-2013
</metadata>
<g transform="translate(0.000000,460.000000) scale(0.100000,-0.100000)"
fill="#000000" stroke="none">
<path d="M1 3718 c1 -486 5 -863 9 -838 5 25 14 89 21 142 l12 96 59 4 c33 2
60 -1 62 -7 3 -10 46 22 46 36 0 4 -8 9 -17 12 -13 3 -9 6 12 11 17 4 42 14
57 22 14 8 33 14 42 14 12 0 16 10 16 39 0 40 0 40 42 43 41 3 42 4 56 56 11
38 19 52 33 52 22 0 46 -70 27 -81 -26 -16 7 -29 76 -29 67 0 74 2 79 21 4 14
11 20 21 16 11 -5 18 4 26 33 6 24 17 40 25 40 11 0 15 12 15 40 0 22 5 40 10
40 6 0 10 -18 10 -40 0 -22 -4 -40 -10 -40 -14 0 -13 -27 1 -32 13 -4 16 -42
6 -83 -6 -22 -5 -26 3 -15 9 13 11 13 20 0 13 -20 13 -4 -1 22 -6 11 -7 24 -2
29 5 5 10 -1 12 -14 5 -42 4 -54 -23 -147 -5 -17 -4 -21 2 -11 7 10 12 -10 16
-65 3 -43 15 -140 26 -214 12 -78 20 -185 20 -253 0 -125 15 -223 55 -347 13
-41 28 -97 33 -125 5 -27 20 -78 33 -112 l23 -61 -34 -109 c-30 -91 -48 -127
-119 -233 -79 -117 -116 -196 -162 -345 -23 -77 -5 -188 55 -326 19 -45 89
-89 138 -88 l33 1 -32 8 c-67 15 -79 31 -103 136 -51 218 9 480 143 614 30 30
78 78 107 105 28 28 57 59 63 70 10 18 11 17 18 -13 15 -74 -18 -414 -55 -557
-22 -82 -20 -135 9 -245 38 -149 94 -281 146 -347 45 -57 54 -64 137 -99 51
-21 158 -24 187 -6 17 11 13 12 -32 7 -112 -12 -199 38 -255 149 -28 54 -32
73 -36 162 -4 92 -1 113 31 230 20 71 41 142 47 159 11 29 11 29 36 -40 13
-39 24 -76 24 -83 0 -8 19 -39 43 -70 23 -32 53 -73 65 -93 40 -65 115 -110
149 -90 16 9 14 10 -9 11 -33 0 -80 27 -106 61 -26 34 -87 182 -107 259 -33
127 -32 197 6 351 31 131 34 138 51 123 9 -9 23 -33 29 -53 7 -20 27 -70 45
-113 27 -60 34 -90 34 -140 0 -88 33 -217 82 -318 53 -111 78 -146 90 -128 6
9 7 6 3 -9 -3 -12 -2 -24 3 -27 5 -3 22 -30 36 -59 24 -47 79 -117 92 -117 8
0 -14 36 -31 50 -23 19 -71 122 -90 195 -20 72 -21 218 -2 295 l13 55 22 -49
c12 -27 22 -54 22 -60 0 -13 113 -212 134 -236 19 -21 13 -155 -7 -178 -19
-22 -37 -88 -27 -99 13 -14 68 -157 63 -166 -2 -4 -25 -7 -51 -7 -67 0 -114
-16 -145 -48 -31 -32 -28 -52 7 -76 l23 -15 -68 -69 c-75 -77 -93 -117 -64
-139 11 -7 27 -13 38 -13 10 0 44 -7 75 -17 32 -9 81 -21 111 -27 30 -6 57
-18 61 -26 4 -8 13 -28 21 -45 l15 -30 127 -3 127 -3 0 41 c0 22 5 40 11 40 6
0 10 -10 9 -22 -5 -63 -67 -58 654 -58 l654 0 -13 67 c-18 91 -71 263 -150
485 -72 203 -105 275 -145 318 -27 29 -28 36 -38 187 -6 87 -13 165 -17 174
-3 9 -17 22 -30 29 -13 7 -26 23 -29 36 -4 13 -13 24 -20 24 -8 0 -24 12 -36
28 -20 24 -21 34 -15 92 15 131 17 125 -37 122 -39 -3 -47 -1 -53 17 -8 25 14
101 29 101 7 0 6 4 -2 8 -8 6 4 17 40 35 55 28 92 34 103 17 9 -15 25 -12 25
5 0 19 8 19 53 0 46 -19 46 -19 44 4 -1 13 -6 17 -17 13 -12 -5 -13 -3 -3 10
7 8 15 37 18 64 l5 49 -14 -46 c-17 -59 -23 -69 -44 -69 -46 1 -46 16 0 86 25
38 51 78 57 89 10 17 11 15 6 -17 -3 -20 -2 -39 3 -41 4 -3 9 2 10 11 6 61 12
100 17 120 3 13 3 40 -1 60 -7 35 -7 35 -17 12 -9 -24 -10 -24 -21 13 -6 22
-14 36 -17 32 -4 -3 -6 2 -5 11 1 14 -9 20 -46 25 -56 9 -68 15 -68 37 0 12 3
13 12 4 17 -17 59 -14 86 6 21 16 22 20 12 97 -5 44 -17 112 -25 150 -9 39
-20 97 -26 130 -6 32 -15 66 -22 74 -6 7 -10 25 -9 38 2 14 -4 33 -14 44 -17
18 -17 20 2 34 18 14 18 14 0 15 -14 0 -16 3 -7 13 8 10 7 17 -2 27 -8 8 -8
11 0 6 8 -4 8 3 0 29 -9 32 -11 33 -24 17 -14 -16 -14 -16 -9 1 3 10 6 23 6
28 0 6 4 7 10 4 6 -3 7 1 3 10 -5 14 -8 14 -15 3 -7 -9 -8 -6 -5 10 4 18 2 22
-10 18 -12 -5 -14 -1 -11 19 6 28 -3 32 -22 10 -14 -17 -46 -20 -55 -5 -7 11
-25 4 -25 -9 0 -4 7 -16 15 -27 15 -19 15 -19 9 1 -7 20 -6 20 12 1 13 -13 15
-20 7 -23 -14 -5 10 -51 34 -66 18 -11 16 -28 -2 -21 -8 4 -15 1 -15 -5 0 -6
4 -11 8 -11 4 0 8 -8 9 -17 1 -10 4 -40 7 -68 6 -50 6 -50 -13 -28 -10 12 -28
54 -41 95 -13 40 -32 84 -44 97 -12 13 -15 21 -9 17 9 -5 11 -2 7 8 -3 9 -10
16 -15 16 -5 0 -9 11 -9 24 0 14 -6 31 -13 38 -7 7 -16 22 -21 33 -6 16 -9 17
-17 5 -9 -12 -10 -10 -6 7 3 12 -1 27 -9 34 -8 6 -21 26 -29 43 -9 17 -33 51
-55 76 -22 25 -40 52 -40 61 0 26 -27 44 -44 30 -12 -10 -14 -9 -9 7 2 10 -3
26 -11 35 -9 8 -16 18 -16 22 0 16 -70 76 -81 69 -8 -5 -9 -3 -4 5 9 16 -25
49 -44 43 -7 -2 -17 2 -22 9 -6 10 -26 13 -61 12 -44 -1 -59 3 -93 28 -22 16
-52 35 -67 41 -35 16 -35 20 5 38 17 8 31 21 30 27 -2 7 4 10 15 7 16 -5 16
-5 -1 9 -16 14 -16 15 2 39 18 22 18 25 3 45 -27 33 -62 50 -142 71 -141 37
-146 37 -180 0 -29 -32 -31 -32 -45 -14 -13 18 -15 17 -52 -13 -39 -33 -76
-44 -54 -17 10 12 5 26 -23 70 -31 49 -76 89 -76 69 0 -5 -14 -14 -31 -20 -25
-10 -29 -10 -19 2 6 7 -17 2 -54 -13 -35 -15 -62 -30 -59 -34 2 -4 -2 -5 -10
-2 -20 7 -111 -68 -138 -115 -14 -25 -28 -39 -40 -38 -22 1 -25 13 -6 20 8 4
6 6 -4 6 -9 1 -42 -14 -73 -31 -49 -29 -56 -36 -52 -59 4 -23 2 -25 -37 -27
-69 -4 -99 -12 -164 -48 -34 -19 -63 -34 -66 -34 -3 0 -7 9 -10 21 -5 17 -3
18 9 8 8 -6 18 -9 21 -5 8 8 -16 26 -34 26 -8 0 -11 -9 -7 -27 4 -23 -2 -35
-30 -62 -20 -19 -36 -30 -36 -24 0 6 7 16 15 23 8 7 15 19 15 26 0 8 7 14 15
14 8 0 15 5 15 10 0 6 -3 10 -7 10 -14 -1 -43 -27 -43 -39 0 -7 -4 -10 -8 -7
-5 3 -7 -22 -5 -54 4 -50 2 -60 -11 -60 -9 0 -34 -18 -56 -40 -38 -38 -57 -45
-24 -9 15 16 14 20 -5 40 -12 13 -21 27 -21 31 0 8 52 5 90 -4 8 -2 5 0 -7 6
-18 8 -23 18 -23 47 0 26 -5 39 -17 44 -16 6 -15 8 5 16 13 5 20 13 17 19 -3
5 -1 10 4 10 6 0 10 6 8 13 -1 6 7 12 18 11 17 0 20 6 20 43 l0 43 -52 0 c-40
0 -53 4 -53 15 0 10 10 15 33 15 17 0 56 3 85 6 42 6 52 10 52 25 0 11 -4 19
-10 19 -5 0 -10 18 -10 40 0 29 4 40 15 40 13 0 15 32 15 225 l0 225 40 0 c29
0 40 4 40 15 0 8 7 15 15 15 11 0 15 11 15 40 0 29 -4 40 -15 40 -11 0 -15 11
-15 40 0 22 4 40 9 40 12 0 71 59 71 71 0 5 -7 9 -16 9 -14 0 -15 2 -3 17 13
15 14 15 17 0 2 -12 14 -17 38 -17 33 0 34 1 34 40 l0 40 -595 0 -595 0 1
-882z m1009 682 c0 -22 -4 -40 -10 -40 -5 0 -10 -18 -10 -40 0 -36 -2 -40 -25
-40 -22 0 -25 4 -25 40 0 36 3 40 25 40 23 0 25 4 25 40 0 22 5 40 10 40 6 0
10 -18 10 -40z m649 -534 c-10 -9 -69 -36 -69 -32 0 7 52 35 64 36 5 0 7 -2 5
-4z m569 -245 c9 -5 2 -8 -20 -9 -23 -1 -28 2 -18 8 18 12 22 12 38 1z m-1431
-48 c-3 -10 -5 -2 -5 17 0 19 2 27 5 18 2 -10 2 -26 0 -35z m877 -38 c-9 -14
-24 -30 -33 -35 -13 -8 -14 -9 -1 -10 8 0 27 -6 41 -14 16 -8 32 -10 40 -5 27
17 39 9 39 -24 0 -29 -5 -35 -36 -46 -26 -9 -38 -10 -43 -2 -4 6 -16 7 -31 3
-37 -12 -244 -114 -250 -123 -11 -16 -79 3 -86 23 -3 11 -3 22 -1 25 3 3 1 11
-6 17 -15 17 -78 -22 -71 -44 6 -24 -135 -138 -147 -119 -5 8 -9 21 -9 30 0 9
-8 20 -17 24 -17 6 -17 8 2 22 11 8 41 26 68 39 26 13 47 29 47 35 0 5 -5 7
-12 3 -6 -4 -3 5 8 19 10 15 29 27 42 27 12 0 22 6 22 14 0 12 -7 13 -32 5
-18 -5 -34 -9 -36 -9 -2 0 -1 -4 2 -8 2 -4 -4 -9 -15 -9 -32 -3 -13 12 64 50
41 20 80 43 87 52 7 8 26 15 42 15 16 0 27 4 24 8 -2 4 -1 13 3 20 5 9 20 10
60 2 37 -7 59 -7 73 1 16 8 19 8 13 -1 -6 -9 -3 -9 13 -1 26 14 35 14 26 0 -3
-6 8 -4 24 5 17 9 42 16 56 16 14 0 28 5 31 10 3 6 8 10 11 10 2 0 -3 -11 -12
-25z m-874 -72 c0 -12 -3 -14 -8 -7 -4 7 -16 14 -27 17 -15 4 -14 5 8 6 20 1
27 -4 27 -16z m290 -147 c0 -2 -7 -7 -16 -10 -8 -3 -12 -2 -9 4 6 10 25 14 25
6z m-830 -61 c11 -13 8 -15 -20 -15 -28 0 -31 2 -20 15 7 8 16 15 20 15 4 0
13 -7 20 -15z m1436 -137 c4 -7 3 -8 -4 -4 -8 5 -10 2 -6 -8 4 -11 0 -16 -11
-16 -11 0 -15 5 -11 15 6 16 -2 19 -21 7 -9 -6 -8 -12 6 -24 11 -9 24 -12 32
-8 7 5 17 6 23 3 5 -4 6 0 1 8 -14 24 0 7 74 -86 58 -73 70 -95 66 -115 -5
-20 -4 -22 6 -13 10 10 16 8 30 -9 18 -20 17 -44 -2 -33 -13 9 -12 3 16 -58
14 -30 33 -58 41 -61 9 -3 14 -12 11 -19 -3 -8 1 -14 8 -14 8 0 11 7 7 16 -8
24 -23 41 -32 36 -6 -4 -33 66 -26 72 3 4 116 -160 116 -170 0 -3 -10 -13 -23
-21 -19 -13 -27 -13 -62 -1 -86 31 -201 6 -292 -62 -31 -23 -69 -45 -85 -48
-15 -4 -28 -11 -28 -16 0 -12 17 -11 41 1 23 13 24 8 4 -30 -10 -18 -11 -30
-5 -30 7 0 8 -6 0 -19 -24 -46 -6 -40 45 14 45 49 57 57 67 46 11 -11 10 -12
-1 -6 -10 6 -12 2 -7 -16 6 -21 5 -22 -4 -6 -11 17 -13 16 -31 -7 -16 -20 -17
-29 -9 -52 l11 -28 45 52 c25 29 52 52 60 52 9 0 13 4 9 9 -3 5 -1 12 5 16 6
4 10 -4 10 -19 0 -23 1 -24 26 -12 55 29 81 -6 49 -68 -9 -16 -14 -29 -13 -30
2 -1 13 -9 25 -19 18 -16 24 -16 42 -6 16 11 18 16 8 28 -9 12 -6 12 15 -2 15
-9 36 -17 48 -17 11 0 20 -6 20 -12 0 -7 8 3 19 22 10 19 15 37 10 38 -19 7
-8 32 17 38 19 5 29 2 36 -10 15 -26 28 -19 29 17 0 31 1 30 15 -13 17 -55 17
-63 2 -54 -7 4 -8 3 -4 -5 4 -6 12 -9 17 -6 10 7 12 -7 11 -90 0 -55 0 -57 7
-20 l8 40 2 -46 c2 -63 -15 -146 -39 -191 -26 -50 -12 -48 44 6 25 25 47 42
49 38 10 -17 7 -124 -3 -143 -13 -24 -4 -41 10 -19 6 8 12 31 16 50 3 19 15
54 26 77 11 23 22 68 25 100 6 56 33 114 66 141 14 12 37 97 53 197 l6 40 20
-55 c11 -30 25 -67 30 -82 16 -44 27 -22 12 22 -23 66 -11 186 24 240 8 12 20
-26 13 -39 -15 -28 -22 -118 -11 -145 6 -16 26 -34 53 -47 37 -18 43 -25 39
-48 -2 -14 4 -39 13 -56 l17 -30 -6 28 c-4 15 -2 27 4 27 5 0 10 6 10 14 0 8
4 17 9 20 5 4 4 -10 -2 -29 -6 -19 -7 -38 -3 -42 9 -10 27 19 21 34 -2 7 5 22
16 32 20 18 21 24 10 84 -6 36 -20 85 -31 110 -20 46 -75 101 -90 92 -4 -3
-10 4 -13 15 -4 14 0 20 12 20 21 0 63 -29 56 -40 -3 -4 3 -14 13 -21 15 -13
16 -12 3 4 -8 10 -9 17 -3 17 6 0 14 -9 17 -20 3 -11 10 -20 14 -20 13 0 39
-72 50 -139 15 -90 -8 -189 -55 -236 -15 -15 -15 -17 2 -30 10 -7 19 -19 20
-27 2 -29 30 -78 48 -84 18 -6 19 -14 13 -128 -7 -136 -13 -166 -33 -166 -8 0
-14 4 -14 9 0 5 -18 18 -40 29 l-40 19 -15 -23 c-8 -13 -15 -28 -15 -35 0 -6
-14 -29 -31 -51 -18 -22 -48 -63 -68 -93 -20 -30 -54 -67 -75 -84 -21 -17 -36
-31 -32 -31 11 0 -17 -25 -43 -39 -13 -7 -43 -28 -67 -46 -24 -18 -63 -43 -87
-55 -42 -21 -45 -21 -77 -5 -18 9 -76 23 -129 30 -53 8 -125 26 -160 40 -36
14 -71 25 -78 25 -19 0 -111 88 -129 122 -8 15 -43 48 -79 74 -54 38 -65 50
-60 68 8 28 35 96 47 120 6 12 6 16 -1 11 -7 -4 -11 3 -11 16 0 24 -76 143
-111 175 -16 14 -38 19 -88 20 -64 2 -66 3 -83 35 -21 42 -68 188 -68 214 0
18 1 18 23 -2 12 -11 54 -41 93 -66 68 -44 114 -59 114 -37 0 6 -9 10 -20 10
-10 0 -34 13 -52 29 -18 15 -38 26 -44 24 -5 -2 -20 7 -31 19 -18 20 -19 25
-7 36 12 11 14 9 14 -8 0 -11 5 -20 11 -20 5 0 7 5 4 10 -3 6 1 10 9 10 11 0
16 11 18 38 l1 37 4 -34 c3 -22 7 -30 12 -22 6 9 14 5 29 -16 21 -30 24 -63 7
-75 -8 -7 -1 -8 40 -8 3 0 5 3 5 8 0 4 -5 7 -12 7 -6 0 -13 6 -16 13 -3 11 0
12 17 3 11 -7 21 -8 21 -4 0 4 5 2 11 -4 8 -8 8 -17 1 -30 -9 -16 -6 -22 19
-37 34 -20 40 -6 7 17 -19 12 -21 18 -10 28 9 10 12 10 12 1 0 -14 85 -102 99
-102 18 0 41 12 41 22 0 5 -10 6 -21 3 -34 -11 -116 85 -188 218 l-61 112 55
-60 c137 -149 145 -156 167 -153 29 4 34 25 6 24 -14 -1 -22 4 -20 12 1 8 -2
11 -8 7 -7 -4 -22 3 -36 16 -25 23 -33 46 -12 33 7 -4 8 -3 4 5 -4 6 -11 9
-16 6 -5 -3 -25 28 -45 69 -36 72 -37 74 -18 96 36 45 87 90 121 106 18 8 49
26 68 39 19 13 52 26 74 30 22 4 40 11 40 16 0 26 -141 -14 -216 -61 -34 -22
-65 -36 -69 -32 -4 4 -13 -2 -21 -12 -8 -11 -14 -14 -14 -8 0 14 38 72 55 84
6 5 6 8 -2 8 -6 0 -18 -7 -27 -15 -11 -11 -17 -12 -22 -4 -4 7 -1 17 7 23 18
14 22 30 25 84 1 29 8 48 21 57 10 9 13 14 6 15 -17 0 -17 25 0 42 18 18 30
51 16 42 -7 -4 -10 -1 -7 7 3 8 15 13 27 12 28 -4 27 15 -1 27 -16 6 -18 9 -7
9 9 1 22 8 29 16 7 9 19 14 26 11 7 -3 16 0 20 6 5 7 2 8 -7 3 -9 -5 -8 -1 3
10 15 16 18 16 39 1 14 -9 18 -16 10 -16 -8 0 -11 -3 -7 -7 4 -5 13 -1 19 7
26 33 99 51 113 28z m-276 -48 c12 -8 12 -13 -2 -42 -14 -27 -17 -29 -17 -11
-1 12 4 23 11 25 7 3 8 10 4 17 -6 10 -13 6 -25 -12 -12 -19 -21 -23 -31 -17
-13 8 -13 10 1 10 9 0 19 9 22 20 6 22 14 24 37 10z m-73 -97 c-3 -10 -5 -4
-5 12 0 17 2 24 5 18 2 -7 2 -21 0 -30z m1233 -6 c0 -31 -5 -45 -19 -54 -16
-10 -20 -9 -25 3 -15 39 2 94 29 94 11 0 15 -12 15 -43z m-696 -13 c3 -8 2
-12 -4 -9 -6 3 -10 10 -10 16 0 14 7 11 14 -7z m7 -41 c13 -16 12 -17 -3 -4
-10 7 -18 15 -18 17 0 8 8 3 21 -13z m1117 -10 c-6 -7 -12 -13 -13 -13 -2 0
-5 6 -8 13 -3 7 3 13 14 13 13 0 15 -3 7 -13z m42 13 c0 -3 -4 -8 -10 -11 -5
-3 -10 -1 -10 4 0 6 5 11 10 11 6 0 10 -2 10 -4z m-1708 -123 c-1 -55 3 -90 7
-79 6 16 9 17 16 6 5 -9 4 -15 -3 -18 -15 -5 -16 -38 -2 -47 6 -3 13 1 16 9 7
17 24 22 24 7 0 -5 -7 -16 -15 -25 -8 -8 -15 -22 -15 -30 0 -9 -4 -16 -9 -16
-14 0 -31 118 -31 215 0 49 3 86 6 82 3 -3 6 -50 6 -104z m1126 82 c-3 -3 -9
2 -12 12 -6 14 -5 15 5 6 7 -7 10 -15 7 -18z m-528 -42 c0 -13 2 -13 17 -2 15
13 15 12 4 -8 -17 -33 -24 -29 -43 25 -17 47 -17 47 3 23 10 -13 19 -30 19
-38z m-983 -5 c-3 -8 -6 -5 -6 6 -1 11 2 17 5 13 3 -3 4 -12 1 -19z m1528 12
c3 -5 1 -10 -4 -10 -6 0 -11 5 -11 10 0 6 2 10 4 10 3 0 8 -4 11 -10z m-1326
-134 c-19 -20 -25 10 -20 94 l3 45 13 -65 c8 -38 9 -69 4 -74z m823 97 c-6
-11 -6 -26 -1 -38 9 -18 9 -18 5 3 -2 12 0 22 5 22 5 0 9 -7 9 -15 0 -20 10
-19 26 3 13 16 17 13 58 -33 37 -41 46 -46 52 -32 9 24 22 21 27 -5 3 -13 3
-3 1 22 l-3 45 30 -62 c41 -87 78 -233 85 -338 6 -86 -15 -290 -33 -318 -4 -7
-12 11 -18 38 l-10 50 -31 -47 c-32 -49 -53 -55 -30 -9 8 14 17 45 21 68 5 33
10 41 23 36 11 -3 13 -2 6 4 -6 4 -15 33 -18 63 -8 60 -42 178 -57 197 -7 8
-3 13 13 15 22 4 21 5 -9 24 -18 10 -33 23 -33 29 0 14 -82 168 -95 180 -7 6
-22 27 -35 48 -22 37 -22 39 -4 56 23 22 29 20 16 -6z m525 -85 c-3 -8 -6 -5
-6 6 -1 11 2 17 5 13 3 -3 4 -12 1 -19z m-193 -63 c-4 -11 -3 -16 2 -12 4 4
16 -25 26 -65 17 -68 17 -79 2 -157 -8 -47 -22 -94 -30 -105 -13 -19 -14 -15
-13 39 1 41 3 52 8 35 6 -22 8 -23 14 -7 11 28 2 210 -11 234 -15 27 -17 96
-2 73 5 -8 7 -24 4 -35z m430 -21 c3 -8 2 -12 -4 -9 -6 3 -10 10 -10 16 0 14
7 11 14 -7z m-144 -37 c0 -5 -9 1 -21 14 l-20 24 6 -25 c5 -21 4 -22 -5 -7
-17 26 -2 42 21 21 10 -9 19 -21 19 -27z m-243 11 c-3 -8 -6 -5 -6 6 -1 11 2
17 5 13 3 -3 4 -12 1 -19z m-303 -25 c3 -10 9 -24 12 -31 5 -10 -1 -9 -19 3
-15 10 -24 22 -20 31 7 19 19 18 27 -3z m485 -26 c1 -5 -3 -5 -9 -2 -5 3 -10
16 -9 28 0 21 1 21 9 2 5 -11 9 -24 9 -28z m201 -11 c0 -12 -5 -7 -19 24 -11
24 -11 24 3 6 9 -11 16 -24 16 -30z m-110 -1 c0 -5 -5 -3 -10 5 -5 8 -10 20
-10 25 0 6 5 3 10 -5 5 -8 10 -19 10 -25z m147 3 c-3 -8 -6 -5 -6 6 -1 11 2
17 5 13 3 -3 4 -12 1 -19z m-993 -22 c-3 -9 -10 -13 -16 -10 -5 3 -4 12 3 20
15 18 22 13 13 -10z m803 -8 c-3 -7 -5 -2 -5 12 0 14 2 19 5 13 2 -7 2 -19 0
-25z m-847 -8 c-24 -15 -36 -11 -14 4 10 8 21 12 24 10 2 -3 -2 -9 -10 -14z
m814 4 c3 -8 2 -12 -4 -9 -6 3 -10 10 -10 16 0 14 7 11 14 -7z m445 -37 c1 -5
-3 -5 -9 -2 -5 3 -10 16 -9 28 0 21 1 21 9 2 5 -11 9 -24 9 -28z m-440 -7 c6
0 11 -5 11 -11 0 -17 -22 -5 -38 22 -12 21 -12 22 1 7 8 -10 19 -18 26 -18z
m588 -12 c-3 -7 -5 -2 -5 12 0 14 2 19 5 13 2 -7 2 -19 0 -25z m-547 -8 c0 -5
-5 -10 -11 -10 -5 0 -7 5 -4 10 3 6 8 10 11 10 2 0 4 -4 4 -10z m420 -60 c5 0
11 10 13 23 3 14 5 9 6 -14 0 -20 3 -52 6 -70 5 -34 5 -34 -5 -5 -5 16 -14 32
-20 36 -6 4 -12 22 -14 41 -2 19 -1 24 1 12 2 -13 8 -23 13 -23z m-403 -17
c-3 -10 -5 -4 -5 12 0 17 2 24 5 18 2 -7 2 -21 0 -30z m547 3 c-3 -15 -8 -25
-11 -23 -2 3 -1 17 3 31 3 15 8 25 11 23 2 -3 1 -17 -3 -31z m-1974 4 c6 -11
8 -20 6 -20 -3 0 -10 9 -16 20 -6 11 -8 20 -6 20 3 0 10 -9 16 -20z m-63 -12
c-3 -8 -6 -5 -6 6 -1 11 2 17 5 13 3 -3 4 -12 1 -19z m2010 -10 c-3 -7 -5 -2
-5 12 0 14 2 19 5 13 2 -7 2 -19 0 -25z m-412 -49 c-5 -13 -2 -25 6 -31 11 -7
9 -8 -5 -4 -15 5 -17 2 -13 -14 3 -11 1 -23 -4 -26 -16 -10 -14 39 3 74 14 28
21 29 13 1z m452 -1 c-3 -8 -6 -5 -6 6 -1 11 2 17 5 13 3 -3 4 -12 1 -19z
m-87 -52 c0 -26 -6 -18 -14 19 -5 22 -4 26 4 15 5 -8 10 -24 10 -34z m-360
-56 c0 -5 -5 -10 -11 -10 -5 0 -7 5 -4 10 3 6 8 10 11 10 2 0 4 -4 4 -10z
m-12 -19 c7 -4 15 -21 17 -37 l3 -29 -24 30 c-32 41 -30 58 4 36z m253 -57
c27 -19 52 -33 57 -30 4 2 9 -6 10 -19 1 -17 -3 -22 -16 -18 -9 2 -37 -5 -62
-16 -49 -22 -70 -17 -121 32 -28 25 -69 41 -69 27 0 -4 7 -10 15 -14 8 -3 15
-10 15 -15 0 -6 -7 -7 -17 -4 -11 4 -14 3 -9 -5 4 -7 3 -20 -3 -29 -7 -13 -9
-5 -8 33 0 28 -3 56 -7 63 -13 20 2 26 22 8 10 -10 22 -14 26 -10 12 12 69 31
95 32 13 1 45 -15 72 -35z m154 26 c3 -6 -1 -7 -9 -4 -18 7 -21 14 -7 14 6 0
13 -4 16 -10z m-1745 -111 c0 -10 -7 -19 -15 -19 -15 0 -21 31 -9 43 11 10 24
-3 24 -24z m-300 -20 c0 -6 -4 -7 -10 -4 -5 3 -10 11 -10 16 0 6 5 7 10 4 6
-3 10 -11 10 -16z m1955 12 c3 -5 0 -13 -6 -17 -8 -4 -9 -3 -5 4 10 16 -5 14
-28 -3 -11 -8 -25 -15 -30 -15 -6 0 3 9 19 20 34 22 41 24 50 11z m-145 -42
c0 -5 -4 -9 -10 -9 -5 0 -10 7 -10 16 0 8 5 12 10 9 6 -3 10 -10 10 -16z m57
5 c-3 -3 -12 -4 -19 -1 -8 3 -5 6 6 6 11 1 17 -2 13 -5z m83 -4 c0 -5 -5 -10
-11 -10 -5 0 -7 5 -4 10 3 6 8 10 11 10 2 0 4 -4 4 -10z m-1577 -21 c10 -11
17 -23 14 -25 -2 -2 -13 7 -25 21 -12 14 -18 25 -14 25 4 0 16 -9 25 -21z
m1741 -43 c-6 -16 -8 -17 -16 -2 -11 19 0 42 13 29 6 -6 7 -18 3 -27z m-1750
-16 c-6 -6 -10 -2 -11 12 -2 16 1 18 10 9 7 -7 8 -14 1 -21z m1720 -20 c-5 -5
-10 3 -11 18 -1 22 0 24 9 8 6 -10 6 -22 2 -26z m-154 6 c0 -23 -114 -186
-126 -182 -6 3 -11 -3 -10 -11 3 -39 -163 -143 -229 -143 -26 0 -102 -75 -86
-84 6 -4 11 -15 11 -24 -1 -11 -6 -7 -16 12 -15 28 -15 29 21 66 20 21 32 39
26 41 -6 2 3 12 20 21 16 10 27 13 24 8 -10 -16 45 17 61 36 9 11 12 13 9 6
-9 -18 49 12 89 45 16 13 35 22 43 19 8 -4 11 -1 7 5 -4 6 -2 14 4 18 9 5 73
89 122 160 17 24 30 27 30 7z m122 -48 c-8 -8 -9 -4 -5 13 4 13 8 18 11 10 2
-7 -1 -18 -6 -23z m-440 -72 c7 4 7 0 0 -12 -5 -11 -12 -26 -15 -34 -3 -8 -5
5 -5 30 0 25 2 37 5 27 2 -9 9 -14 15 -11z m44 -18 c-9 -12 -16 -17 -16 -10 0
18 24 54 28 42 2 -5 -4 -20 -12 -32z m87 -38 c-31 -25 -83 -60 -89 -60 -5 0 7
13 26 30 23 20 28 28 15 23 -11 -3 -29 -14 -40 -23 -33 -28 -45 -33 -39 -15 9
22 73 53 107 53 15 -1 24 -4 20 -8z m-328 -101 c-3 -12 -7 -24 -10 -27 -3 -3
-3 5 -1 19 6 30 5 29 10 29 3 0 3 -10 1 -21z m75 -28 c0 -5 -7 -12 -16 -15
-14 -5 -15 -4 -4 9 14 17 20 19 20 6z m-125 -61 c-3 -5 -12 -10 -18 -10 -7 0
-6 4 3 10 19 12 23 12 15 0z m95 -10 c0 -5 -5 -10 -11 -10 -5 0 -7 5 -4 10 3
6 8 10 11 10 2 0 4 -4 4 -10z m-1809 -67 c-12 -20 -14 -14 -5 12 4 9 9 14 11
11 3 -2 0 -13 -6 -23z m1795 -20 c-8 -15 -15 -22 -16 -15 0 17 20 55 27 49 2
-3 -2 -18 -11 -34z m481 -163 c2 -30 10 -150 19 -266 9 -116 15 -217 12 -225
-2 -7 -15 16 -28 52 -13 35 -27 69 -30 74 -16 21 -80 243 -86 298 l-7 57 42 0
c40 0 41 1 41 36 0 28 3 35 18 32 13 -2 17 -15 19 -58z m-416 3 c-12 -20 -14
-14 -5 12 4 9 9 14 11 11 3 -2 0 -13 -6 -23z m-481 -13 c0 -5 -4 -10 -10 -10
-5 0 -10 5 -10 10 0 6 5 10 10 10 6 0 10 -4 10 -10z m428 -35 c-3 -3 -9 2 -12
12 -6 14 -5 15 5 6 7 -7 10 -15 7 -18z m59 3 c-3 -8 -6 -5 -6 6 -1 11 2 17 5
13 3 -3 4 -12 1 -19z m-430 -30 c-3 -8 -6 -5 -6 6 -1 11 2 17 5 13 3 -3 4 -12
1 -19z m450 -55 c-3 -10 -5 -2 -5 17 0 19 2 27 5 18 2 -10 2 -26 0 -35z m-440
5 c-3 -8 -6 -5 -6 6 -1 11 2 17 5 13 3 -3 4 -12 1 -19z m93 -15 c38 -39 93
-67 153 -78 20 -4 37 -11 37 -16 0 -11 -46 -103 -68 -136 l-14 -23 -27 34
c-15 18 -35 53 -45 77 -9 24 -33 74 -52 112 -19 37 -32 67 -27 67 4 0 24 -17
43 -37z m327 -25 c-2 -105 5 -156 19 -144 7 6 9 16 4 21 -4 6 -4 30 -1 55 l7
45 7 -45 c19 -122 35 -197 46 -218 17 -31 9 -107 -12 -106 -9 1 -13 -4 -11
-11 3 -7 -16 -30 -43 -51 -26 -22 -62 -52 -79 -67 -32 -29 -32 -29 -13 -48 16
-16 19 -28 14 -51 -5 -21 -4 -28 4 -24 6 4 11 15 11 24 1 11 6 8 16 -11 13
-24 13 -30 -1 -49 -8 -13 -15 -27 -15 -33 0 -5 4 -4 9 3 12 20 34 -12 34 -49
0 -23 3 -26 9 -15 5 9 3 29 -7 52 -18 43 -18 47 -5 39 5 -3 17 -32 26 -63 9
-31 20 -61 25 -67 17 -17 9 -47 -22 -86 -27 -34 -33 -38 -48 -27 -14 12 -15
11 -2 -5 13 -16 12 -21 -12 -44 l-26 -27 5 25 c4 21 3 21 -7 -3 -12 -31 -24
-36 -33 -12 -12 32 -4 50 44 103 45 49 64 91 41 91 -7 0 -34 51 -112 215 -10
22 -19 46 -19 54 0 15 157 171 172 171 6 0 8 -7 4 -15 -8 -22 2 -18 15 6 6 12
7 19 1 16 -5 -4 -9 6 -10 21 -1 58 -15 124 -23 110 -7 -10 -9 -9 -9 5 0 9 5
17 10 17 6 0 1 13 -11 29 -15 21 -20 37 -15 55 4 15 2 26 -4 26 -5 0 -10 9
-10 20 0 11 -4 20 -10 20 -5 0 -10 14 -10 31 0 17 4 28 10 24 6 -4 10 6 11 22
0 25 1 26 9 8 8 -19 9 -19 9 3 1 12 3 22 5 22 2 0 3 -28 3 -62z m-1023 26 c3
-8 2 -12 -4 -9 -6 3 -10 10 -10 16 0 14 7 11 14 -7z m944 -29 c-3 -3 -9 2 -12
12 -6 14 -5 15 5 6 7 -7 10 -15 7 -18z m-285 -20 c9 -19 15 -35 13 -35 -2 0
-13 16 -25 35 -11 19 -17 35 -13 35 5 0 16 -16 25 -35z m374 -17 c-3 -7 -5 -2
-5 12 0 14 2 19 5 13 2 -7 2 -19 0 -25z m-317 -80 c0 -4 -5 -10 -12 -14 -8 -5
-9 -2 -5 10 5 13 3 17 -5 13 -8 -3 -13 4 -13 19 l0 24 17 -23 c10 -12 18 -25
18 -29z m-620 -40 c0 -15 -8 -8 -29 28 -29 48 -26 55 4 14 14 -19 25 -38 25
-42z m575 22 c3 -5 1 -10 -4 -10 -6 0 -11 5 -11 10 0 6 2 10 4 10 3 0 8 -4 11
-10z m65 -30 c6 -11 8 -20 6 -20 -3 0 -10 9 -16 20 -6 11 -8 20 -6 20 3 0 10
-9 16 -20z m-25 -1 c11 -17 -1 -21 -15 -4 -8 9 -8 15 -2 15 6 0 14 -5 17 -11z
m1056 -632 c-16 -16 -26 0 -10 19 9 11 15 12 17 4 2 -6 -1 -17 -7 -23z"/>
<path d="M1115 3270 c-21 -23 -4 -27 19 -4 18 17 20 24 8 24 -5 0 -17 -9 -27
-20z"/>
<path d="M1608 3083 c7 -3 16 -2 19 1 4 3 -2 6 -13 5 -11 0 -14 -3 -6 -6z"/>
<path d="M1699 3053 c-13 -16 -12 -17 4 -4 9 7 17 15 17 17 0 8 -8 3 -21 -13z"/>
<path d="M1713 3035 c-10 -10 -9 -16 3 -26 12 -10 13 -9 8 5 -3 9 -2 16 4 16
6 0 13 -6 15 -12 4 -8 6 -9 6 -2 2 21 -23 33 -36 19z"/>
<path d="M1511 3014 c0 -11 3 -14 6 -6 3 7 2 16 -1 19 -3 4 -6 -2 -5 -13z"/>
<path d="M1780 2973 c12 -18 16 -33 10 -33 -6 0 -13 7 -16 15 -4 8 -13 15 -22
15 -13 0 -13 -2 3 -13 10 -8 15 -19 12 -25 -5 -6 0 -8 13 -5 32 8 32 19 4 50
l-26 28 22 -32z"/>
<path d="M1850 2855 c-11 -13 -10 -14 4 -9 9 3 16 10 16 15 0 13 -6 11 -20 -6z"/>
<path d="M1950 2660 c-8 -5 -10 -10 -5 -10 6 0 17 5 25 10 8 5 11 10 5 10 -5
0 -17 -5 -25 -10z"/>
<path d="M1735 2651 c-59 -15 -153 -63 -163 -84 -20 -42 -22 -56 -6 -50 7 3
14 14 14 24 0 32 82 71 193 94 15 3 25 10 22 15 -7 11 -17 11 -60 1z"/>
<path d="M1968 2633 c6 -2 18 -2 25 0 6 3 1 5 -13 5 -14 0 -19 -2 -12 -5z"/>
<path d="M2037 2375 c-8 -18 4 -20 23 -2 12 10 12 9 0 -6 -11 -15 -11 -20 4
-35 15 -15 18 -15 26 -2 5 8 9 26 9 40 -1 23 -2 23 -9 -5 -7 -29 -12 -27 -14
5 -1 20 -32 25 -39 5z"/>
<path d="M1265 2339 c-18 -19 -8 -28 11 -9 7 7 15 2 24 -15 7 -14 17 -25 22
-25 13 0 9 11 -16 41 -23 28 -24 28 -41 8z"/>
<path d="M1310 2345 c7 -9 15 -13 17 -11 7 7 -7 26 -19 26 -6 0 -6 -6 2 -15z"/>
<path d="M1810 2346 c0 -15 91 -116 105 -116 3 0 5 7 5 15 0 8 -5 15 -11 15
-5 0 -7 5 -4 10 4 6 2 9 -3 8 -5 -2 -27 17 -50 42 -31 34 -42 40 -42 26z"/>
<path d="M2020 2342 c0 -12 19 -26 26 -19 2 2 -2 10 -11 17 -9 8 -15 8 -15 2z"/>
<path d="M2096 2308 c-9 -35 -7 -160 2 -154 8 5 14 176 7 176 -1 0 -5 -10 -9
-22z"/>
<path d="M2126 2321 c-4 -7 -5 -15 -2 -18 9 -9 19 4 14 18 -4 11 -6 11 -12 0z"/>
<path d="M1930 2310 c0 -5 5 -10 10 -10 6 0 10 5 10 10 0 6 -4 10 -10 10 -5 0
-10 -4 -10 -10z"/>
<path d="M1992 2295 c-7 -8 -10 -15 -7 -15 3 0 -6 -16 -21 -35 -15 -20 -24
-38 -20 -42 3 -3 7 -4 9 -2 1 2 19 23 40 47 20 23 37 47 37 52 0 15 -23 11
-38 -5z"/>
<path d="M2066 2283 c9 -38 14 -42 14 -10 0 14 -5 29 -10 32 -7 4 -8 -3 -4
-22z"/>
<path d="M1929 2250 c5 -23 6 -23 9 -3 2 12 11 24 20 26 9 3 5 4 -9 4 -22 -1
-25 -5 -20 -27z"/>
<path d="M2559 2258 c-21 -15 -6 -54 24 -64 31 -10 52 23 33 50 -16 25 -35 29
-57 14z m41 -42 c-13 -13 -35 7 -25 24 5 8 11 8 21 -1 10 -8 12 -15 4 -23z"/>
<path d="M2021 2234 c0 -11 3 -14 6 -6 3 7 2 16 -1 19 -3 4 -6 -2 -5 -13z"/>
<path d="M2020 2190 c-16 -10 -40 -82 -40 -124 0 -16 2 -27 5 -24 5 5 7 13 21
86 6 31 17 36 20 9 0 -7 2 -20 2 -30 1 -10 6 -16 11 -12 8 4 5 94 -3 102 -1 1
-8 -2 -16 -7z"/>
<path d="M1232 2139 c2 -6 7 -10 11 -10 4 1 21 1 38 1 17 0 28 4 24 10 -8 14
-78 13 -73 -1z"/>
<path d="M1980 1803 c-46 -16 -189 -125 -191 -146 -3 -24 3 -43 19 -61 20 -22
112 -67 124 -60 15 10 8 24 -12 24 -11 0 -20 5 -20 11 0 5 3 8 8 6 4 -3 7 11
6 31 -1 38 19 97 39 116 7 6 25 21 41 34 16 12 22 22 15 21 -18 -1 -53 -23
-124 -81 -73 -58 -97 -51 -29 9 87 78 174 109 220 79 22 -15 24 -54 1 -39 -6
3 -7 1 -3 -6 4 -6 11 -9 16 -6 5 3 11 1 15 -5 4 -6 10 -8 14 -6 8 5 23 -20 35
-56 9 -30 29 -21 21 10 -10 41 -64 110 -102 130 -28 15 -38 15 -93 -5z m140
-64 c0 -6 -4 -7 -10 -4 -5 3 -10 11 -10 16 0 6 5 7 10 4 6 -3 10 -11 10 -16z"/>
<path d="M1979 1717 c7 -7 14 -8 21 -1 6 6 2 10 -12 11 -16 2 -18 -1 -9 -10z"/>
<path d="M2086 1703 c-6 -14 -5 -15 5 -6 7 7 10 15 7 18 -3 3 -9 -2 -12 -12z"/>
<path d="M2032 2740 c0 -14 2 -19 5 -12 2 6 2 18 0 25 -3 6 -5 1 -5 -13z"/>
<path d="M1995 2740 c3 -5 8 -10 11 -10 2 0 4 5 4 10 0 6 -5 10 -11 10 -5 0
-7 -4 -4 -10z"/>
<path d="M2171 2654 c0 -11 3 -14 6 -6 3 7 2 16 -1 19 -3 4 -6 -2 -5 -13z"/>
<path d="M2876 2115 c-11 -8 -15 -15 -9 -15 6 0 16 7 23 15 16 19 11 19 -14 0z"/>
<path d="M2890 2094 c0 -7 52 -25 57 -20 2 2 -10 8 -26 14 -17 6 -31 9 -31 6z"/>
<path d="M2860 2075 c0 -2 6 -8 13 -14 10 -8 14 -7 14 2 0 8 -6 14 -14 14 -7
0 -13 -1 -13 -2z"/>
<path d="M2915 2050 c-19 -8 -19 -9 3 -9 12 -1 22 4 22 9 0 6 -1 10 -2 9 -2 0
-12 -4 -23 -9z"/>
<path d="M2595 670 c-3 -6 1 -7 9 -4 18 7 21 14 7 14 -6 0 -13 -4 -16 -10z"/>
<path d="M2509 593 c-13 -16 -12 -17 4 -4 16 13 21 21 13 21 -2 0 -10 -8 -17
-17z"/>
<path d="M2555 450 c-3 -5 -1 -10 4 -10 6 0 11 5 11 10 0 6 -2 10 -4 10 -3 0
-8 -4 -11 -10z"/>
<path d="M2604 246 c-3 -9 -9 -14 -13 -12 -3 2 -7 -7 -7 -20 -1 -13 2 -21 7
-18 5 3 9 12 9 20 0 8 7 14 15 14 17 0 20 16 5 25 -6 3 -13 -1 -16 -9z"/>
<path d="M1280 4575 c0 -22 4 -25 40 -25 36 0 40 3 40 25 0 23 -4 25 -40 25
-36 0 -40 -2 -40 -25z"/>
<path d="M1440 4584 c0 -14 3 -14 15 -4 8 7 15 14 15 16 0 2 -7 4 -15 4 -8 0
-15 -7 -15 -16z"/>
<path d="M2858 4593 c7 -3 16 -2 19 1 4 3 -2 6 -13 5 -11 0 -14 -3 -6 -6z"/>
<path d="M3187 4585 c10 -7 27 -15 38 -17 11 -2 19 -10 17 -17 -1 -7 7 -15 18
-18 13 -3 20 -14 20 -29 0 -13 5 -24 10 -24 6 0 10 -7 10 -15 0 -9 20 -24 45
-35 25 -11 45 -24 45 -30 0 -25 52 -8 89 30 21 22 45 40 52 40 12 0 12 2 0 9
-10 6 -2 11 25 15 33 6 42 13 59 48 10 22 28 44 40 49 11 5 -87 8 -233 7 -208
0 -250 -2 -235 -13z"/>
<path d="M3994 4568 c11 -54 75 -93 104 -64 12 11 13 16 3 16 -7 0 -20 7 -28
16 -14 13 -14 17 -2 25 10 6 10 9 2 9 -7 0 -13 5 -13 10 0 16 26 12 51 -9 20
-16 25 -17 34 -5 8 11 18 12 44 4 19 -5 37 -7 41 -5 4 3 10 -4 13 -15 3 -12
14 -20 26 -20 14 0 19 5 15 15 -4 10 0 15 14 15 11 0 23 6 26 13 3 6 3 2 0
-10 -4 -16 -1 -23 10 -23 8 0 18 5 21 10 9 14 25 12 25 -2 0 -27 -20 -42 -53
-41 -30 1 -34 -2 -29 -19 4 -17 1 -19 -17 -13 -12 4 -21 2 -21 -4 0 -6 8 -11
18 -11 13 -1 10 -6 -13 -27 -25 -22 -31 -24 -33 -10 -2 10 -13 17 -27 17 -19
0 -22 4 -17 22 4 17 2 20 -11 15 -12 -4 -14 -2 -10 11 4 13 2 13 -10 -3 -16
-20 -15 -26 14 -90 16 -37 46 -67 109 -106 15 -9 46 -36 71 -60 85 -83 154
-139 170 -139 9 0 31 -13 48 -29 l31 -29 0 80 c0 53 -4 77 -11 73 -5 -4 -31
-10 -57 -14 -45 -6 -49 -5 -87 31 -21 21 -46 38 -55 38 -18 1 -52 25 -45 32 3
3 -1 11 -10 18 -27 22 -17 45 29 68 24 12 50 22 59 22 9 0 14 6 11 13 -8 21
67 48 120 44 46 -3 46 -3 46 28 0 20 -11 43 -30 65 -16 19 -29 43 -30 53 0 16
-18 17 -276 17 l-276 -1 6 -31z"/>
<path d="M4210 4540 c0 -5 5 -10 11 -10 5 0 7 5 4 10 -3 6 -8 10 -11 10 -2 0
-4 -4 -4 -10z"/>
<path d="M1230 4481 c0 -22 -5 -41 -11 -43 -14 -5 5 -48 21 -48 16 0 35 43 21
48 -6 2 -11 21 -11 43 0 21 -4 39 -10 39 -5 0 -10 -18 -10 -39z"/>
<path d="M1410 4510 c0 -5 7 -10 15 -10 8 0 15 5 15 10 0 6 -7 10 -15 10 -8 0
-15 -4 -15 -10z"/>
<path d="M1150 4400 c0 -22 5 -40 10 -40 6 0 10 18 10 40 0 22 -4 40 -10 40
-5 0 -10 -18 -10 -40z"/>
<path d="M4500 4419 c0 -5 5 -7 10 -4 6 3 10 8 10 11 0 2 -4 4 -10 4 -5 0 -10
-5 -10 -11z"/>
<path d="M2995 4050 c-3 -5 1 -10 9 -10 9 0 16 5 16 10 0 6 -4 10 -9 10 -6 0
-13 -4 -16 -10z"/>
<path d="M1338 3723 c6 -2 18 -2 25 0 6 3 1 5 -13 5 -14 0 -19 -2 -12 -5z"/>
<path d="M1115 3698 c5 -25 2 -28 -19 -28 -14 0 -28 -4 -31 -10 -4 -6 6 -10
23 -10 34 0 46 20 31 52 -9 21 -9 21 -4 -4z"/>
<path d="M1190 3709 c0 -5 5 -7 10 -4 6 3 10 8 10 11 0 2 -4 4 -10 4 -5 0 -10
-5 -10 -11z"/>
<path d="M1286 3695 c-11 -8 -16 -15 -10 -15 5 0 18 7 28 15 11 8 16 15 10 15
-5 0 -18 -7 -28 -15z"/>
<path d="M1170 3675 c7 -9 15 -13 17 -11 7 7 -7 26 -19 26 -6 0 -6 -6 2 -15z"/>
<path d="M1036 3643 c-6 -14 -5 -15 5 -6 7 7 10 15 7 18 -3 3 -9 -2 -12 -12z"/>
<path d="M1149 3636 c-19 -7 -44 -9 -55 -5 -28 11 -42 10 -24 -1 13 -9 13 -10
0 -10 -13 0 -13 -1 0 -10 13 -9 13 -10 0 -10 -13 0 -13 -1 0 -10 8 -5 20 -10
25 -10 6 0 3 5 -5 10 -13 9 -13 10 0 10 13 0 13 1 0 11 -12 8 -11 9 5 6 11 -2
19 -8 18 -14 -1 -6 9 -8 25 -5 l27 6 -25 6 c-22 6 -20 8 20 16 25 5 40 12 35
16 -6 3 -26 1 -46 -6z"/>
<path d="M1180 3616 c0 -10 28 -13 41 -5 10 6 7 9 -13 9 -16 0 -28 -2 -28 -4z"/>
<path d="M980 3600 c0 -5 5 -10 10 -10 6 0 10 5 10 10 0 6 -4 10 -10 10 -5 0
-10 -4 -10 -10z"/>
<path d="M1040 3579 c0 -6 -4 -8 -9 -5 -5 3 -11 -1 -15 -9 -7 -19 13 -19 37
-1 15 12 16 14 2 20 -8 3 -15 1 -15 -5z"/>
<path d="M900 3540 c-8 -5 -11 -12 -8 -16 4 -3 14 1 23 10 18 17 9 21 -15 6z"/>
<path d="M800 3370 c0 -5 9 -10 19 -10 11 0 23 5 26 10 4 6 -5 10 -19 10 -14
0 -26 -4 -26 -10z"/>
<path d="M721 3304 c0 -11 3 -14 6 -6 3 7 2 16 -1 19 -3 4 -6 -2 -5 -13z"/>
<path d="M745 3239 c-4 -6 -5 -12 -2 -15 2 -3 7 2 10 11 7 17 1 20 -8 4z"/>
<path d="M2762 3223 c13 -12 20 -14 31 -5 11 9 14 8 14 -3 0 -8 -4 -12 -9 -9
-20 12 -5 -12 41 -67 l50 -60 6 35 c4 19 4 44 0 55 -8 27 -83 71 -121 71 -26
0 -27 -1 -12 -17z m116 -46 c9 -6 9 -13 2 -28 -6 -11 -8 -25 -4 -32 5 -9 4 -9
-5 -1 -10 9 -10 17 -2 32 10 19 6 32 -11 32 -5 0 -6 -5 -2 -11 5 -9 -29 4 -44
16 -8 7 55 -1 66 -8z"/>
<path d="M731 3194 c0 -11 3 -14 6 -6 3 7 2 16 -1 19 -3 4 -6 -2 -5 -13z"/>
<path d="M306 3171 c-3 -5 1 -11 9 -14 9 -4 12 -1 8 9 -6 16 -10 17 -17 5z"/>
<path d="M3105 2770 c-17 -8 -17 -9 7 -7 15 1 24 5 22 9 -3 4 -6 8 -7 7 -1 0
-11 -4 -22 -9z"/>
<path d="M3300 2623 c0 -6 8 -17 18 -24 16 -13 16 -13 2 6 -8 11 -16 22 -17
24 -2 2 -3 0 -3 -6z"/>
<path d="M3420 2371 c0 -6 4 -13 10 -16 6 -3 7 1 4 9 -7 18 -14 21 -14 7z"/>
<path d="M3433 2135 c0 -38 2 -53 4 -32 2 20 2 52 0 70 -2 17 -4 1 -4 -38z"/>
<path d="M3640 2175 c0 -5 9 -23 20 -40 11 -16 20 -25 20 -20 0 6 -9 24 -20
40 -11 17 -20 26 -20 20z"/>
<path d="M3262 1950 c0 -14 2 -19 5 -12 2 6 2 18 0 25 -3 6 -5 1 -5 -13z"/>
<path d="M3371 1874 c-17 -36 -50 -85 -73 -110 -22 -24 -37 -48 -33 -52 4 -4
10 -1 13 7 3 8 19 28 37 45 30 29 102 162 92 172 -2 2 -18 -25 -36 -62z"/>
<path d="M3508 905 c-4 -27 -5 -147 -2 -265 6 -241 8 -280 22 -336 6 -21 21
-99 33 -171 l23 -133 77 0 77 0 -23 93 c-30 119 -42 220 -55 442 -12 211 -26
350 -39 372 -5 10 -23 17 -48 17 -33 1 -39 -2 -35 -16 2 -10 0 -18 -6 -18 -6
0 -12 15 -14 33 -3 28 -4 25 -10 -18z m39 -557 c-3 -8 -6 -5 -6 6 -1 11 2 17
5 13 3 -3 4 -12 1 -19z"/>
<path d="M3735 168 c3 -18 7 -63 11 -100 5 -64 7 -68 30 -68 27 0 27 4 -7 114
-11 32 -19 65 -19 72 0 8 -4 14 -9 14 -6 0 -8 -15 -6 -32z"/>
</g>
</svg>
